<svg id="Ñëîé_1" data-name="Ñëîé 1" xmlns="http://www.w3.org/2000/svg" viewBox="0 0 2783.48 2997.31"><defs><style>.cls-1{fill:#83b3d6;}.cls-1,.cls-2,.cls-3,.cls-4,.cls-5,.cls-6,.cls-7,.cls-8,.cls-9{fill-rule:evenodd;}.cls-2{fill:#93bad8;}.cls-3{fill:#85aecc;}.cls-4{fill:#7ca2c3;}.cls-5{fill:#f1b24a;}.cls-6{fill:#654337;}.cls-7{fill:#fefefe;}.cls-8{fill:#7d5749;}.cls-9{fill:#f7a37f;}</style></defs><path class="cls-1" d="M2106.88,1162.14c-74.45-195.35-28-553.3,87.55-743.88,88.14-144.73,252.52-209,320.42-77.43C2628,561.2,2349.28,1042.42,2201,1198.47c-29.19,3-60.75-7.75-94.1-36.33Z" transform="translate(-608.26 -156.79)"/><path class="cls-2" d="M2041.36,1203.23c-143.53-181.05-214.41-573.54-156-812.37C1930,209.21,2082.46,85.92,2197.4,202.06c193,194.16,59.56,794.51-44.66,1007.72-29.78,13.11-66.71,12.51-111.38-6.55Z" transform="translate(-608.26 -156.79)"/><path class="cls-3" d="M2417.17,1294.35c81-193,362.12-419.88,576.52-477,163.79-44.08,327.57,23.22,285.88,165-70.28,237.64-604.51,393.08-818.92,403.21-23.82-17.87-38.71-47-43.48-91.13Z" transform="translate(-608.26 -156.79)"/><path class="cls-4" d="M2274.23,1228.25c-14.29-230.49,151.88-593.2,336.51-755.79,140-123.88,335.31-138.18,363.3,22.63,47.65,269.8-404.4,686.7-612.26,802.24-31.56-5.95-61.34-27.39-87.55-69.08Z" transform="translate(-608.26 -156.79)"/><path class="cls-5" d="M689.4,2088.26c0,680.75,429.41,951.14,1072,1042.26,1839.15,260.27,1906.45-1712.88,381.17-2042.83C1409.45,929.27,689.4,1120.45,689.4,2088.26Z" transform="translate(-608.26 -156.79)"/><path class="cls-6" d="M1128.94,1717.22c26.8-36.93,62.53,46.45,108.39,46.45,51.22,0,88.74-78.62,107.21-52.41,20.25,28.59-28.59,91.12-98.87,97.67-80.4,7.15-135.79-66.7-116.73-91.71Z" transform="translate(-608.26 -156.79)"/><path class="cls-6" d="M894.28,1487.92c178.08,42.28,166.16,284.09,24.42,350.79-41.1,19.66-74.45,16.68-109-6.55-35.14-23.23-69.69-63.72-72.07-131-5.36-125.08,72.07-232.88,156.64-213.22Z" transform="translate(-608.26 -156.79)"/><path class="cls-7" d="M899,1543.31c28.59-24.42,72.66,32.16,63.13,62.53-3,10.72-10.12,14.89-20.25,16.08s-22-2.38-35.13-13.1c-23.83-19.65-20.85-54.2-7.75-65.51Z" transform="translate(-608.26 -156.79)"/><path class="cls-6" d="M1841.84,1644.55c204.88,48.25,191.78,327,28.59,404.4-47.64,22-85.76,18.47-126.26-7.74-39.9-27.4-79.81-73.26-82.79-151.28-6.55-143.53,83.38-268.6,180.46-245.38Z" transform="translate(-608.26 -156.79)"/><path class="cls-7" d="M1847.2,1708.28c33.36-28.59,84,36.93,73.26,72.07-3.57,12.5-12.51,17.27-23.82,18.46-11.91,1.19-25-2.38-40.5-15.48-27.4-22.64-23.82-61.95-8.94-75Z" transform="translate(-608.26 -156.79)"/><path class="cls-6" d="M1894.26,1047.79C2163.46,1261,2473.75,1660,2336.77,2133.53c-54.79,188.79-196.54,461-390.7,619.4-241.8,197.13-543.76,261.46-606.3,278.73,179.87,53.6,257.29,70.87,386.53,94.1,440.13-108.4,791.53-599.75,866.57-994,76.23-400.23-117.33-852.27-428.82-1039.29-15.48-8.93-284.68-56-269.79-44.66Z" transform="translate(-608.26 -156.79)"/><path class="cls-8" d="M2675.65,1311.63C3209.29,2362.82,2715,2836.9,2205.74,3150.18c646.21-28,881.46-399.63,970.8-646.8,237.63-657.52-350.2-1119.69-500.89-1191.75Z" transform="translate(-608.26 -156.79)"/><path class="cls-6" d="M3358.78,2407.49c-44.66,6.55-116.13-6.55-163.18-14.89-8.34-44.07,9.52-131,26.8-119.71,47,32.16,247.16,119.71,136.38,134.6Z" transform="translate(-608.26 -156.79)"/><path class="cls-9" d="M1924,2114.47c102.44,15.48,95.89,106,14.3,131-23.83,7.15-42.88,6-63.13-3-19.66-8.34-39.91-23.83-41.69-48.84-3-46.46,41.69-87,90.52-79.21Z" transform="translate(-608.26 -156.79)"/><path class="cls-9" d="M698.93,1922.09c102.44,15.49,95.89,106,14.29,131-23.82,7.15-42.88,6-63.13-3-20.25-8.33-39.9-23.22-41.69-48.83-3-46.46,41.69-87,90.53-79.22Z" transform="translate(-608.26 -156.79)"/><path class="cls-6" d="M1399.92,816.7c14.3-145.92-145.91-61.34-116.73,6-173.91,101.25-251.33,453.23-200.11,494.92,6,4.17,12.5,5.36,21.44,1.79-8.94-45.86-17.87-263.25,150.68-436.56,14.29-14.89,31.56-23.23,50.62-35.14,31,20.25,89.34,22.63,94.1-31Z" transform="translate(-608.26 -156.79)"/><path class="cls-6" d="M1910.93,824.44c14.3-145.91-145.92-61.34-116.73,6-173.91,101.25-251.34,453.23-200.12,494.92,6,4.17,12.51,5.37,21.44,1.79-8.93-45.86-17.86-263.24,150.69-436.56,14.29-14.89,31.56-23.22,50.62-35.14,31,20.25,89.34,22.64,94.1-31Z" transform="translate(-608.26 -156.79)"/></svg>