<svg id="Camada_1" data-name="Camada 1" xmlns="http://www.w3.org/2000/svg" viewBox="0 0 900 400"><defs><style>.cls-1{fill:#f1b24a;}.cls-1,.cls-2,.cls-3,.cls-4{fill-rule:evenodd;}.cls-2{fill:#9dc88d;}.cls-3{fill:#164a41;}.cls-4{fill:#4d774e;}.cls-5{fill:#f2e0b3;}</style></defs><path class="cls-1" d="M866.51,379.42A9.48,9.48,0,1,0,854.25,365a5.69,5.69,0,1,1-7.36-8.68c9.06-7.69,22.45-6.79,29.9,2s6.14,22.14-2.92,29.82a5.69,5.69,0,1,1-7.36-8.68Z"/><path class="cls-1" d="M21.42,42.35C25.73,51.3,36.24,55.19,44.89,51A5.87,5.87,0,0,1,50,61.61c-14.31,6.88-31.67.45-38.79-14.35a5.78,5.78,0,0,1,2.57-7.75A5.78,5.78,0,0,1,21.42,42.35Z"/><path class="cls-2" d="M94.18,39.31c-15.08-14.3-38.5-14.07-52.32.5a5.88,5.88,0,0,1-8.53-8.09C51.47,12.6,82.21,12.3,102,31.06a5.69,5.69,0,1,1-7.82,8.25Z"/><path class="cls-3" d="M67.94,61a5.88,5.88,0,1,1,5.89,5.67A5.79,5.79,0,0,1,67.94,61Z"/><path class="cls-3" d="M68,45.94a5.88,5.88,0,1,1,5.89,5.67A5.77,5.77,0,0,1,68,45.94Z"/><path class="cls-4" d="M836.67,32.61a9.22,9.22,0,0,0,7.94,10.76,10.08,10.08,0,0,0,11.16-8.24,9.21,9.21,0,0,0-7.94-10.76,5.54,5.54,0,0,1-4.76-6.46,6,6,0,0,1,6.7-4.94,20.27,20.27,0,0,1,17.46,23.68,22.16,22.16,0,0,1-24.56,18.12,20.28,20.28,0,0,1-17.46-23.68,6,6,0,0,1,6.7-4.94A5.53,5.53,0,0,1,836.67,32.61Z"/><path class="cls-3" d="M854.23,19.47a6,6,0,0,1-6.69,4.93,5.54,5.54,0,0,1-4.77-6.46A6,6,0,0,1,849.46,13,5.55,5.55,0,0,1,854.23,19.47Z"/><path class="cls-5" d="M881.55,58.87,862.81,72.78A5.68,5.68,0,1,1,856,63.66l18.73-13.92a5.69,5.69,0,1,1,6.78,9.13Z"/><path class="cls-3" d="M884,30.76a5.88,5.88,0,1,1-8.11-1.05A5.79,5.79,0,0,1,884,30.76Z"/><path class="cls-4" d="M56.66,334.75a9.82,9.82,0,0,0,8.5,17.69,5.89,5.89,0,0,1,5.1,10.61c-10.35,5-22.92.29-28.09-10.45s-1-23.48,9.39-28.46a5.89,5.89,0,0,1,5.1,10.61Z"/><path class="cls-3" d="M12.58,360.22c14,0,25.31,10.95,25.31,24.46a5.51,5.51,0,0,0,11,0c0-19.39-16.26-35.1-36.32-35.1a5.32,5.32,0,1,0,0,10.64Z"/></svg>