<svg id="Camada_1" data-name="Camada 1" xmlns="http://www.w3.org/2000/svg" viewBox="0 0 900 400"><defs><style>.cls-1{fill:#9dc88d;}.cls-1,.cls-3,.cls-4,.cls-5{fill-rule:evenodd;}.cls-2{fill:#f2e0b3;}.cls-3{fill:#4d774e;}.cls-4{fill:#164a41;}.cls-5{fill:#f1b24a;}</style></defs><path class="cls-1" d="M141,287.6c-9.28,6.83-22.52,4.58-29.57-5L88.2,251c-7-9.59-5.23-22.9,4-29.72s22.52-4.57,29.57,5L145,257.89C152.07,267.48,150.26,280.78,141,287.6Zm-20.4-11.75a9.49,9.49,0,1,0,15.28-11.23L112.65,233a9.49,9.49,0,1,0-15.28,11.23Z"/><path class="cls-1" d="M51.3,381.89a5.79,5.79,0,0,0,5.88,5.68H75.4A21.83,21.83,0,0,0,91.08,381a21.83,21.83,0,0,0,15.68,6.54h18c11.91,0,21.56-9.33,21.56-20.83a5.88,5.88,0,0,0-11.76,0,9.63,9.63,0,0,1-9.8,9.46h-18a9.63,9.63,0,0,1-9.8-9.46V328.48C97,317.19,87.49,308,75.79,308v11.36a9.25,9.25,0,0,1,9.41,9.09v38.26a9.63,9.63,0,0,1-9.8,9.46H57.18A5.79,5.79,0,0,0,51.3,381.89Z"/><path class="cls-2" d="M127.63,336.1a9.49,9.49,0,1,0-9.81-9.49,5.89,5.89,0,0,1-11.77,0c0-11.52,9.66-20.85,21.58-20.85s21.58,9.33,21.58,20.85-9.66,20.86-21.58,20.86a5.69,5.69,0,1,1,0-11.37Z"/><path class="cls-2" d="M47,225.82a12.51,12.51,0,1,0,0-25,13.27,13.27,0,0,0-10,4.43,6.05,6.05,0,0,1-8.31.63,5.54,5.54,0,0,1-.65-8A25.23,25.23,0,0,1,47,189.46c13.69,0,24.83,10.66,24.83,23.86S60.65,237.18,47,237.18a5.68,5.68,0,1,1,0-11.36Z"/><path class="cls-3" d="M831.61,164.37a9.22,9.22,0,0,0-.05,13.38,10.09,10.09,0,0,0,13.88,0,9.22,9.22,0,0,0,0-13.37,5.54,5.54,0,0,1,0-8,6,6,0,0,1,8.32,0,20.27,20.27,0,0,1-.1,29.42,22.15,22.15,0,0,1-30.52-.1,20.27,20.27,0,0,1,.1-29.41,6,6,0,0,1,8.32,0A5.52,5.52,0,0,1,831.61,164.37Z"/><path class="cls-4" d="M853.53,164.29a6,6,0,0,1-8.31,0,5.55,5.55,0,0,1,0-8,6,6,0,0,1,8.31,0A5.54,5.54,0,0,1,853.53,164.29Z"/><path class="cls-4" d="M75.82,319.39a5.68,5.68,0,1,1,5.87-5.68A5.78,5.78,0,0,1,75.82,319.39Z"/><path class="cls-5" d="M59,337.65a9.82,9.82,0,1,0-9.81,9.48A9.66,9.66,0,0,0,59,337.65ZM49.2,316.79c11.91,0,21.58,9.34,21.58,20.86s-9.67,20.86-21.58,20.86-21.59-9.34-21.59-20.86S37.28,316.79,49.2,316.79Z"/><path class="cls-2" d="M67.25,288.72a12,12,0,0,0-12.12,11.76v22a5.87,5.87,0,0,1-11.73,0v-22c0-12.78,10.68-23.13,23.85-23.13Z"/><path class="cls-4" d="M49.28,328.16a5.69,5.69,0,1,1,5.88-5.68A5.79,5.79,0,0,1,49.28,328.16Z"/><path class="cls-4" d="M49.11,343.25A5.68,5.68,0,1,1,55,337.57,5.79,5.79,0,0,1,49.11,343.25Z"/><path class="cls-5" d="M78.93,270.54a9.48,9.48,0,1,0,0,18.95c21.47,0,38.87,16.8,38.87,37.53A5.89,5.89,0,0,1,106,327c0-14.45-12.12-26.16-27.09-26.16-11.92,0-21.59-9.33-21.59-20.84S67,259.17,78.93,259.17a5.69,5.69,0,1,1,0,11.37Z"/><path class="cls-3" d="M186.63,106.07a9.82,9.82,0,0,0,8.5,17.69,5.89,5.89,0,0,1,5.09,10.61c-10.34,5-22.92.29-28.08-10.45s-1-23.48,9.39-28.45a5.89,5.89,0,0,1,5.1,10.6Z"/><path class="cls-2" d="M214.9,91.1c13-6.25,18.31-22.23,11.84-35.69A5.68,5.68,0,1,1,237,50.49c9.28,19.31,1.68,42.24-17,51.21a5.88,5.88,0,0,1-5.09-10.6Z"/><path class="cls-5" d="M763.34,181.08c21.69.07,39.32-16.87,39.39-37.83a5.89,5.89,0,0,1,11.78,0c-.09,27.24-23,49.26-51.2,49.17a5.69,5.69,0,1,1,0-11.38Z"/><path class="cls-1" d="M707.37,145.87c-.07,19.27,16,34.93,36,35a5.69,5.69,0,1,1,0,11.37c-26.43-.08-47.79-20.86-47.7-46.4a5.89,5.89,0,0,1,11.77,0Z"/><path class="cls-4" d="M111.92,332.7A5.68,5.68,0,1,1,117.8,327,5.78,5.78,0,0,1,111.92,332.7Z"/><path class="cls-4" d="M140.48,372.47a5.68,5.68,0,1,1,5.87-5.68A5.78,5.78,0,0,1,140.48,372.47Z"/><path class="cls-4" d="M57,387.57a5.69,5.69,0,1,1,5.87-5.68A5.79,5.79,0,0,1,57,387.57Z"/><path class="cls-3" d="M111.92,347.8a5.68,5.68,0,1,1,5.88-5.68A5.78,5.78,0,0,1,111.92,347.8Z"/><path class="cls-3" d="M111.92,363.06a5.69,5.69,0,1,1,5.88-5.68A5.78,5.78,0,0,1,111.92,363.06Z"/><path class="cls-4" d="M156.26,374.42a5.68,5.68,0,1,1,5.88-5.68A5.79,5.79,0,0,1,156.26,374.42Z"/><path class="cls-4" d="M156.26,389.52a5.69,5.69,0,1,1,5.88-5.69A5.79,5.79,0,0,1,156.26,389.52Z"/><path class="cls-4" d="M131.93,287a5.69,5.69,0,1,1,8.06,1.38A5.78,5.78,0,0,1,131.93,287Z"/><path class="cls-4" d="M79.34,270.53a5.68,5.68,0,1,1,5.88-5.68A5.79,5.79,0,0,1,79.34,270.53Z"/><path class="cls-1" d="M830.19,126.93a5.79,5.79,0,0,0-5.87-5.7,9.64,9.64,0,0,1-9.78-9.5l.12-37.88a9.66,9.66,0,0,1,9.84-9.44,5.68,5.68,0,1,0,0-11.36,21.92,21.92,0,0,0-15.72,6.49A21.82,21.82,0,0,0,793.15,53l-18.06-.06c-11.92,0-21.61,9.26-21.65,20.77a5.89,5.89,0,0,0,11.77,0,9.66,9.66,0,0,1,9.85-9.44l18.05.06a9.64,9.64,0,0,1,9.78,9.5l-.13,37.87c0,11.51,9.6,20.86,21.52,20.9A5.79,5.79,0,0,0,830.19,126.93Z"/><path class="cls-2" d="M731.63,230.75a9.82,9.82,0,1,1,9.81,9.48,5.69,5.69,0,1,0,0,11.38c11.92,0,21.58-9.34,21.58-20.86s-9.66-20.86-21.58-20.86-21.58,9.34-21.58,20.86a5.89,5.89,0,0,0,11.77,0Z"/><path class="cls-4" d="M824.55,53.05a5.68,5.68,0,1,1-5.9,5.67A5.78,5.78,0,0,1,824.55,53.05Z"/><path class="cls-4" d="M824.33,121.23a5.68,5.68,0,1,1-5.9,5.66A5.78,5.78,0,0,1,824.33,121.23Z"/><path class="cls-5" d="M830.34,85.36a9.82,9.82,0,0,0,19.62.06,5.89,5.89,0,0,1,11.77,0c0,11.48-9.73,20.76-21.65,20.72s-21.55-9.37-21.51-20.86a5.89,5.89,0,0,1,11.77,0Z"/><path class="cls-3" d="M733.81,73.21a9.82,9.82,0,0,0,19.62.06,5.89,5.89,0,0,1,11.77,0c0,11.48-9.73,20.76-21.65,20.72S722,84.66,722,73.18a5.89,5.89,0,0,1,11.77,0Z"/><path class="cls-1" d="M828.07,20.9c-16.59-5-34,3.88-38.85,19.92A5.89,5.89,0,0,1,778,37.4c6.69-22,30.61-34.3,53.41-27.39a5.8,5.8,0,0,1,4,7.16A5.79,5.79,0,0,1,828.07,20.9Z"/><path class="cls-4" d="M824.46,79.67a5.69,5.69,0,1,1-5.89,5.67A5.78,5.78,0,0,1,824.46,79.67Z"/><path class="cls-4" d="M783.2,115.42a5.68,5.68,0,1,1-5.9,5.66A5.78,5.78,0,0,1,783.2,115.42Z"/><path class="cls-4" d="M720.53,246.25a5.88,5.88,0,1,0,5.88-5.68A5.79,5.79,0,0,0,720.53,246.25Z"/><path class="cls-4" d="M704.91,246.25a5.88,5.88,0,1,0,5.88-5.68A5.79,5.79,0,0,0,704.91,246.25Z"/><path class="cls-1" d="M830.18,397.69c-11.92,0-21.58-9.32-21.58-20.83V339c0-11.5,9.66-20.83,21.58-20.83s21.58,9.33,21.58,20.83v37.88C851.76,388.37,842.1,397.69,830.18,397.69ZM840,376.86V339a9.82,9.82,0,0,0-19.62,0v37.88a9.82,9.82,0,0,0,19.62,0Z"/><path class="cls-2" d="M836.18,323.84c0-11.49,9.67-20.8,21.61-20.8a5.68,5.68,0,1,0,0-11.35c-18.44,0-33.4,14.4-33.4,32.15a5.9,5.9,0,0,0,11.79,0Z"/><path class="cls-4" d="M836.15,323.83a5.88,5.88,0,1,0-5.88,5.69A5.79,5.79,0,0,0,836.15,323.83Z"/><path class="cls-5" d="M777.62,367.35a9.49,9.49,0,1,0,9.81,9.48A9.65,9.65,0,0,0,777.62,367.35ZM756,376.83c0-11.52,9.67-20.86,21.59-20.86s21.58,9.34,21.58,20.86-9.67,20.86-21.58,20.86S756,388.35,756,376.83Z"/><path class="cls-1" d="M161.64,130.5c6.64,9.9,4.28,23.12-5.27,29.53l-31.45,21.11c-9.55,6.41-22.68,3.59-29.32-6.31s-4.29-23.11,5.26-29.53l31.45-21.1C141.87,117.78,155,120.61,161.64,130.5Zm-11.83,19.76A9.82,9.82,0,0,0,138.87,134l-31.45,21.11a9.82,9.82,0,0,0,10.94,16.29Z"/><path class="cls-1" d="M650,333.91a5.78,5.78,0,0,0,5.87-5.69,9.64,9.64,0,0,1,9.8-9.48h39.19a9.64,9.64,0,0,1,9.8,9.48,5.88,5.88,0,0,0,11.75,0,20.49,20.49,0,0,0-6.76-15.17,20.52,20.52,0,0,0,6.76-15.17V280.43c0-11.52-9.65-20.86-21.55-20.86a5.69,5.69,0,1,0,0,11.37,9.65,9.65,0,0,1,9.8,9.49v17.45a9.65,9.65,0,0,1-9.8,9.48H665.67c-11.9,0-21.55,9.34-21.55,20.86A5.79,5.79,0,0,0,650,333.91Z"/><path class="cls-3" d="M736.4,345.67a9.82,9.82,0,1,0,9.81-9.48,5.69,5.69,0,1,1,0-11.38c11.92,0,21.58,9.34,21.58,20.86s-9.66,20.86-21.58,20.86-21.58-9.34-21.58-20.86a5.89,5.89,0,0,1,11.77,0Z"/><path class="cls-4" d="M726.41,328.07a5.88,5.88,0,1,1-5.88-5.68A5.79,5.79,0,0,1,726.41,328.07Z"/><path class="cls-4" d="M655.87,328.23a5.88,5.88,0,1,1-5.87-5.68A5.78,5.78,0,0,1,655.87,328.23Z"/><path class="cls-4" d="M767.79,376.91a5.88,5.88,0,1,1-5.88-5.68A5.79,5.79,0,0,1,767.79,376.91Z"/><path class="cls-4" d="M783.58,376.75a5.88,5.88,0,1,1-5.88-5.68A5.78,5.78,0,0,1,783.58,376.75Z"/><path class="cls-5" d="M693.17,333.93a9.48,9.48,0,1,0,0,19,5.69,5.69,0,1,1,0,11.38c-11.88,0-21.51-9.34-21.51-20.86s9.63-20.86,21.51-20.86a5.69,5.69,0,1,1,0,11.38Z"/><path class="cls-5" d="M705.24,232.29a13.64,13.64,0,1,0,0,27.28,5.68,5.68,0,1,1,0,11.36,25,25,0,1,1,0-50,5.68,5.68,0,1,1,0,11.36Z"/><path class="cls-5" d="M158.07,210.87c-8.32-12.41-24.81-15.94-36.82-7.88-9.57,6.43-22.71,3.61-29.34-6.28s-4.27-23.11,5.3-29.54a5.89,5.89,0,0,1,6.56,9.77,9.81,9.81,0,0,0,10.93,16.28c17.22-11.56,40.88-6.5,52.83,11.3a5.7,5.7,0,1,1-9.46,6.35Z"/><path class="cls-4" d="M776,341.53c0-14.44-12.11-26.14-27-26.14A5.68,5.68,0,1,1,749,304c21.43,0,38.8,16.79,38.8,37.5a5.88,5.88,0,0,1-11.76,0Z"/><path class="cls-5" d="M243.8,34c4.3,9,14.81,12.85,23.47,8.68a5.87,5.87,0,0,1,5.08,10.58c-14.3,6.88-31.67.45-38.78-14.35A5.68,5.68,0,1,1,243.8,34Z"/><path class="cls-4" d="M699,328.23a5.88,5.88,0,1,1-5.88-5.68A5.79,5.79,0,0,1,699,328.23Z"/><path class="cls-4" d="M672.5,296.74a5.88,5.88,0,1,1-5.88-5.68A5.78,5.78,0,0,1,672.5,296.74Z"/><path class="cls-4" d="M753.44,73.12a5.88,5.88,0,1,1,5.86,5.7A5.79,5.79,0,0,1,753.44,73.12Z"/><path class="cls-4" d="M711.13,265.25a5.88,5.88,0,1,1-5.88-5.68A5.79,5.79,0,0,1,711.13,265.25Z"/><path class="cls-3" d="M688.12,296.74a5.88,5.88,0,1,1-5.88-5.68A5.78,5.78,0,0,1,688.12,296.74Z"/><path class="cls-3" d="M703.74,296.74a5.88,5.88,0,1,1-5.88-5.68A5.78,5.78,0,0,1,703.74,296.74Z"/><path class="cls-4" d="M160.24,138.62a5.88,5.88,0,1,1,1.44-8.05A5.78,5.78,0,0,1,160.24,138.62Z"/><path class="cls-4" d="M138,214.55a5.88,5.88,0,1,1-5.88-5.68A5.79,5.79,0,0,1,138,214.55Z"/><path class="cls-5" d="M740.77,141.1a11.78,11.78,0,1,0,.08-23.56c-24.14-.07-43.59-19.12-43.51-42.48a5.89,5.89,0,0,1,11.78,0c-.06,17.14,14.2,31,31.77,31.08,13.21,0,23.83,10.47,23.79,23.21S754,152.5,740.73,152.46a5.68,5.68,0,1,1,0-11.36Z"/><path class="cls-4" d="M709.27,75.09c.05-17.25,14.37-31.09,31.84-31a5.7,5.7,0,1,0,0-11.39c-24.08-.08-43.56,18.95-43.64,42.38a5.88,5.88,0,0,0,11.76,0Z"/><path class="cls-3" d="M703.41,69.4a5.68,5.68,0,1,1-5.9,5.66A5.78,5.78,0,0,1,703.41,69.4Z"/><path class="cls-1" d="M783.22,109.74a5.79,5.79,0,0,1-5.86-5.71l.08-24.66a5.88,5.88,0,0,1,11.75,0l-.08,24.66A5.79,5.79,0,0,1,783.22,109.74Z"/><path class="cls-2" d="M685.91,129.24a5.8,5.8,0,0,1,5.91-5.66l49.86.15a5.69,5.69,0,1,1,0,11.37l-49.86-.16A5.79,5.79,0,0,1,685.91,129.24Z"/><path class="cls-3" d="M697.67,141.5a6,6,0,0,1,8.31,0,5.56,5.56,0,0,1,0,8,6,6,0,0,1-8.32,0A5.54,5.54,0,0,1,697.67,141.5Z"/><path class="cls-3" d="M737.58,158.66a6,6,0,0,1,8.32,0,5.54,5.54,0,0,1,0,8,6,6,0,0,1-8.31,0A5.56,5.56,0,0,1,737.58,158.66Z"/><path class="cls-3" d="M27.61,258a5.79,5.79,0,0,1,5.88-5.68H52.3a5.68,5.68,0,1,1,0,11.36H33.49A5.79,5.79,0,0,1,27.61,258Z"/><path class="cls-1" d="M615,389.36a5.78,5.78,0,0,1-5.88-5.67V367.44a5.88,5.88,0,0,1,11.76,0v16.25A5.78,5.78,0,0,1,615,389.36Z"/><path class="cls-5" d="M633.25,379.82a5.79,5.79,0,0,1,5.89-5.68h46.68a5.68,5.68,0,1,1,0,11.36H639.14A5.79,5.79,0,0,1,633.25,379.82Z"/><path class="cls-4" d="M687.33,385.5a5.68,5.68,0,1,1,5.88-5.68A5.79,5.79,0,0,1,687.33,385.5Z"/><path class="cls-4" d="M759,156.27c9.94,0,18-7.73,18.05-17.34a5.87,5.87,0,0,1,11.74,0c-.05,15.87-13.41,28.7-29.83,28.65a5.68,5.68,0,1,1,0-11.35Z"/><path class="cls-3" d="M787.1,143a6,6,0,0,1-8.32,0,5.54,5.54,0,0,1,0-8,6,6,0,0,1,8.31,0A5.56,5.56,0,0,1,787.1,143Z"/><path class="cls-1" d="M753.68,286.18c20.78,0,37.62-16.28,37.62-36.37a5.88,5.88,0,0,1,11.76,0c0,26.36-22.11,47.73-49.38,47.73a5.68,5.68,0,1,1,0-11.36Z"/><path class="cls-3" d="M775.05,212.66a6,6,0,0,1-8.32,0,5.55,5.55,0,0,1,0-8,6,6,0,0,1,8.32,0A5.55,5.55,0,0,1,775.05,212.66Z"/><path class="cls-3" d="M791.67,212.66a6,6,0,0,1-8.31,0,5.55,5.55,0,0,1,0-8,6,6,0,0,1,8.31,0A5.54,5.54,0,0,1,791.67,212.66Z"/><path class="cls-5" d="M857.3,275.16c-28.19,0-51,22.08-51,49.31a5.89,5.89,0,0,1-11.78,0c0-33.52,28.12-60.7,62.81-60.7a5.7,5.7,0,1,1,0,11.39Z"/><path class="cls-4" d="M685.91,129.27a5.88,5.88,0,1,1,5.89,5.67A5.78,5.78,0,0,1,685.91,129.27Z"/><path class="cls-4" d="M685.72,186.41a5.88,5.88,0,1,1,5.89,5.67A5.78,5.78,0,0,1,685.72,186.41Z"/><path class="cls-4" d="M685.77,171.31a5.88,5.88,0,1,1,5.89,5.68A5.79,5.79,0,0,1,685.77,171.31Z"/><path class="cls-2" d="M828,214.33H804.65a5.69,5.69,0,1,1,0-11.37H828a5.69,5.69,0,1,1,0,11.37Z"/><path class="cls-4" d="M836.89,228.29A5.88,5.88,0,1,1,831,222.6,5.78,5.78,0,0,1,836.89,228.29Z"/><path class="cls-3" d="M209.19,38.18a9.22,9.22,0,0,0,0-13.37,10.07,10.07,0,0,0-13.87,0,9.22,9.22,0,0,0,0,13.37,5.54,5.54,0,0,1,0,8,6,6,0,0,1-8.32,0,20.27,20.27,0,0,1,0-29.42,22.16,22.16,0,0,1,30.52,0,20.29,20.29,0,0,1,0,29.42,6.06,6.06,0,0,1-8.33,0A5.54,5.54,0,0,1,209.19,38.18Z"/><path class="cls-4" d="M187.27,38.33a6,6,0,0,1,8.31,0,5.55,5.55,0,0,1,0,8,6,6,0,0,1-8.31,0A5.55,5.55,0,0,1,187.27,38.33Z"/><path class="cls-5" d="M55,152a8.88,8.88,0,1,0-.23-17.75,5.33,5.33,0,1,1-.15-10.65c11.18-.14,20.35,8.48,20.5,19.27s-8.8,19.64-20,19.78A5.33,5.33,0,1,1,55,152Z"/><path class="cls-4" d="M46.32,161.08a5.88,5.88,0,1,1,6,5.61A5.77,5.77,0,0,1,46.32,161.08Z"/><path class="cls-5" d="M153.05,41a9.65,9.65,0,0,1-9.81-9.48,9.82,9.82,0,0,1,19.62,0A9.65,9.65,0,0,1,153.05,41Zm-21.58-9.48c0,11.52,9.66,20.85,21.58,20.85s21.58-9.33,21.58-20.85S165,10.7,153.05,10.7,131.47,20,131.47,31.56Z"/><path class="cls-1" d="M35.4,57a5.79,5.79,0,0,1,5.88,5.69,9.64,9.64,0,0,0,9.8,9.48H90.26a9.65,9.65,0,0,0,9.8-9.48,5.88,5.88,0,0,1,11.76,0c0,11.52-9.65,20.85-21.56,20.85H51.86A9.65,9.65,0,0,0,42.06,93V130.9a9.64,9.64,0,0,0,9.8,9.48,5.69,5.69,0,1,1,0,11.38c-11.9,0-21.55-9.34-21.55-20.86V93a20.49,20.49,0,0,1,6.37-14.81,20.54,20.54,0,0,1-7.16-15.52A5.79,5.79,0,0,1,35.4,57Z"/><path class="cls-2" d="M91.81,41.92a23.85,23.85,0,0,1,22.78-16h22.75a5.67,5.67,0,1,1,0,11.33H114.59a12.1,12.1,0,0,0-11.7,8.51,20.55,20.55,0,0,1,8.93,16.85,5.88,5.88,0,0,1-11.76,0,9.63,9.63,0,0,0-9.8-9.45H51.08a9.62,9.62,0,0,0-9.8,9.45,5.88,5.88,0,0,1-11.76,0c0-11.48,9.65-20.79,21.56-20.79H90.26c.52,0,1,0,1.55.06Z"/><path class="cls-3" d="M111.83,62.72a9.82,9.82,0,1,1,9.81,9.48,5.69,5.69,0,1,0,0,11.38c11.92,0,21.58-9.34,21.58-20.86s-9.66-20.86-21.58-20.86-21.58,9.34-21.58,20.86a5.89,5.89,0,0,0,11.77,0Z"/><path class="cls-4" d="M111.82,62.8a5.88,5.88,0,1,0-5.88,5.68A5.79,5.79,0,0,0,111.82,62.8Z"/><path class="cls-3" d="M41.28,62.64a5.88,5.88,0,1,0-5.88,5.68A5.78,5.78,0,0,0,41.28,62.64Z"/><path class="cls-3" d="M105.94,97.22a5.88,5.88,0,1,0-5.88,5.68A5.78,5.78,0,0,0,105.94,97.22Z"/><path class="cls-3" d="M105.94,112.31a5.88,5.88,0,1,0-5.88,5.68A5.79,5.79,0,0,0,105.94,112.31Z"/><path class="cls-4" d="M143.22,31.64a5.88,5.88,0,1,0-5.88,5.68A5.78,5.78,0,0,0,143.22,31.64Z"/><path class="cls-4" d="M159,31.64a5.88,5.88,0,1,0-5.88,5.68A5.78,5.78,0,0,0,159,31.64Z"/><path class="cls-5" d="M86.3,57a9.49,9.49,0,1,1,0-19,5.69,5.69,0,1,0,0-11.38c-11.88,0-21.51,9.34-21.51,20.86S74.42,68.32,86.3,68.32A5.69,5.69,0,1,0,86.3,57Z"/><path class="cls-4" d="M59.54,113.54c14,0,25.32,10.95,25.32,24.46a5.5,5.5,0,0,0,11,0c0-19.39-16.26-35.1-36.32-35.1a5.32,5.32,0,1,0,0,10.64Z"/><path class="cls-4" d="M58.07,146.08a5.88,5.88,0,1,0-5.87,5.68A5.78,5.78,0,0,0,58.07,146.08Z"/><path class="cls-1" d="M161.35,60.7c0,21.15-17.74,38.29-39.62,38.29a5.69,5.69,0,1,0,0,11.37c28.38,0,51.39-22.23,51.39-49.66a5.89,5.89,0,0,0-11.77,0Z"/><path class="cls-4" d="M173.12,60.69a5.88,5.88,0,1,0-5.88,5.68A5.79,5.79,0,0,0,173.12,60.69Z"/><path class="cls-4" d="M29.52,15.73a5.78,5.78,0,0,1,5.88-5.68h27a5.78,5.78,0,0,1,5.88,5.68,5.78,5.78,0,0,1-5.88,5.68h-27A5.78,5.78,0,0,1,29.52,15.73Z"/><path class="cls-3" d="M192.37,68.45a5.88,5.88,0,1,0-5.87,5.68A5.78,5.78,0,0,0,192.37,68.45Z"/><path class="cls-3" d="M208.5,67.64a5.88,5.88,0,1,0-5.88,5.68A5.78,5.78,0,0,0,208.5,67.64Z"/><path class="cls-3" d="M208.5,83.55a5.88,5.88,0,1,0-5.88,5.68A5.78,5.78,0,0,0,208.5,83.55Z"/><path class="cls-4" d="M552,373.46a13.2,13.2,0,0,0,17.35,5.85,12.36,12.36,0,0,0,5.89-16.82,13,13,0,0,0-8.49-6.71,5.7,5.7,0,0,1-4.24-6.94,5.91,5.91,0,0,1,7.16-4.09,24.73,24.73,0,0,1,16.13,12.75,23.57,23.57,0,0,1-11.27,32,25.15,25.15,0,0,1-33.09-11.09,5.61,5.61,0,0,1,2.69-7.62A6,6,0,0,1,552,373.46Z"/><path class="cls-1" d="M316.55,30.94c-15.07-14.29-38.5-14.07-52.31.5a5.88,5.88,0,0,1-8.53-8.09c18.13-19.12,48.87-19.42,68.66-.65a5.68,5.68,0,1,1-7.82,8.24Z"/><path class="cls-4" d="M290.31,52.67a5.88,5.88,0,1,1,5.89,5.67A5.78,5.78,0,0,1,290.31,52.67Z"/><path class="cls-4" d="M290.36,37.57a5.88,5.88,0,1,1,5.89,5.67A5.79,5.79,0,0,1,290.36,37.57Z"/><path class="cls-5" d="M193.6,376.91a9.48,9.48,0,1,0-12.26-14.46,5.69,5.69,0,1,1-7.36-8.68c9.06-7.68,22.45-6.78,29.9,2S210,377.91,201,385.59a5.69,5.69,0,1,1-7.36-8.68Z"/><path class="cls-4" d="M164.7,333.8a5.69,5.69,0,1,1-.81,8.14A5.79,5.79,0,0,1,164.7,333.8Z"/></svg>