<svg xmlns="http://www.w3.org/2000/svg" viewBox="0 0 79.56 91.36"><defs><style>.cls-1,.cls-2,.cls-3{fill:none;stroke:#f1b249;stroke-miterlimit:10;}.cls-1{stroke-width:6px;}.cls-2,.cls-3{stroke-width:4px;}.cls-3{stroke-linecap:round;}</style></defs><g id="Camada_2" data-name="Camada 2"><g id="Camada_2-2" data-name="Camada 2"><path class="cls-1" d="M75.13,67.77,41.69,87.94a2.94,2.94,0,0,1-3,0L4.86,68.45a3,3,0,0,1-1.47-2.52L3,26.14a3,3,0,0,1,1.42-2.55L37.87,3.42a3,3,0,0,1,3,0L74.69,22.9a2.94,2.94,0,0,1,1.48,2.53l.39,39.79A2.94,2.94,0,0,1,75.13,67.77Z"/><line class="cls-2" x1="39.78" y1="3.03" x2="39.78" y2="33.06"/><line class="cls-3" x1="26.87" y1="33.06" x2="53.08" y2="33.06"/><line class="cls-3" x1="31.95" y1="56.73" x2="48" y2="56.73"/><line class="cls-3" x1="24.13" y1="41.35" x2="55.24" y2="41.35"/><line class="cls-3" x1="26.38" y1="49.04" x2="53.08" y2="49.04"/></g></g></svg>